<?xml version="1.0" standalone="no"?>
<!DOCTYPE svg PUBLIC "-//W3C//DTD SVG 1.1//EN" "http://www.w3.org/Graphics/SVG/1.1/DTD/svg11.dtd" >
<svg xmlns="http://www.w3.org/2000/svg">
<metadata>Generated by IcoMoon</metadata>
<defs>
<font id="icomoon" horiz-adv-x="1024">
<font-face units-per-em="1024" ascent="960" descent="-64" />
<missing-glyph horiz-adv-x="1024" />
<glyph unicode="&#x20;" horiz-adv-x="512" d="" />
<glyph unicode="&#xe900;" glyph-name="account" horiz-adv-x="1301" d="M1261.889 833.792h-714.926l-44.543 91.161c-9.412 19.263-34.712 35.047-56.176 35.047h-246.672c-21.485 0-46.827-15.742-56.344-35.005l-45.109-91.202h-59.069c-21.485 0-39.051-17.566-39.051-39.072v-819.67c0-21.464 17.566-39.030 39.051-39.030h1205.986c0 0 55.904 10.502 55.904 53.724v804.976c-0.021 21.506-17.566 39.072-39.051 39.072zM873.121 438.505h121.596v-40.728h-121.596v40.728zM958.14 105.975l-508.772-0.105v52.361c0 0 0.335 30.876 63.513 59.090 30.541 13.583 75.754 48.504 142.725 60.746-17.167 18.446-30.1 47.289-43.599 81.707-7.819 19.829-6.519 36.85-6.519 60.997 0 17.712-3.333 46.157 1.006 61.857 14.862 53.032 52.529 67.726 96.652 67.726 44.061 0 81.749-14.589 96.59-67.6 4.444-15.679 1.027-44.207 1.027-62.003 0-24.084 1.383-41.021-6.414-60.872-13.415-34.209-26.495-63.114-43.767-81.602 67.537-12.095 113.086-47.289 143.815-60.892 63.429-28.193 63.743-59.195 63.743-59.195v-52.215zM1045.003 302.235h-171.882v40.728h171.882v-40.728zM1079.065 494.199h-205.944v40.728h205.944v-40.728z" />
<glyph unicode="&#xe901;" glyph-name="accounting" horiz-adv-x="711" d="M680.387 960h-649.523c-17.039 0-30.853-13.814-30.853-30.853v-962.284c0-17.039 13.814-30.863 30.853-30.863h649.523c17.039 0 30.863 13.824 30.863 30.863v962.284c0 17.039-13.824 30.853-30.863 30.853zM649.523-2.294h-587.807v900.588h587.807v-900.588zM226.058 510.833h-40.387c-17.039 0-30.853-13.814-30.853-30.853s13.814-30.853 30.853-30.853h40.387c17.039 0 30.853 13.814 30.853 30.853s-13.814 30.853-30.853 30.853zM332.063 449.116h40.376c17.039 0 30.863 13.814 30.863 30.853s-13.824 30.853-30.863 30.853h-40.376c-17.039 0-30.853-13.814-30.853-30.853s13.814-30.853 30.853-30.853zM518.84 510.833h-40.376c-17.039 0-30.863-13.814-30.863-30.853s13.824-30.853 30.863-30.853h40.376c17.039 0 30.863 13.814 30.863 30.853s-13.814 30.853-30.863 30.853zM226.058 409.856h-40.387c-17.039 0-30.853-13.814-30.853-30.853 0-17.050 13.814-30.853 30.853-30.853h40.387c17.039 0 30.853 13.804 30.853 30.853s-13.814 30.853-30.853 30.853zM332.063 348.16h40.376c17.039 0 30.863 13.804 30.863 30.853 0 17.039-13.824 30.853-30.863 30.853h-40.376c-17.039 0-30.853-13.814-30.853-30.853 0-17.050 13.814-30.853 30.853-30.853zM518.84 409.856h-40.376c-17.039 0-30.863-13.814-30.863-30.853 0-17.050 13.824-30.853 30.863-30.853h40.376c17.039 0 30.863 13.804 30.863 30.853s-13.814 30.853-30.863 30.853zM226.058 308.9h-40.387c-17.039 0-30.853-13.814-30.853-30.853s13.814-30.853 30.853-30.853h40.387c17.039 0 30.853 13.814 30.853 30.853s-13.814 30.853-30.853 30.853zM332.063 247.204h40.376c17.039 0 30.863 13.814 30.863 30.853s-13.824 30.853-30.863 30.853h-40.376c-17.039 0-30.853-13.814-30.853-30.853s13.814-30.853 30.853-30.853zM518.84 308.9h-40.376c-17.039 0-30.863-13.814-30.863-30.853s13.824-30.853 30.863-30.853h40.376c17.039 0 30.863 13.814 30.863 30.853s-13.814 30.853-30.863 30.853zM226.058 207.944h-40.387c-17.039 0-30.853-13.824-30.853-30.863s13.814-30.853 30.853-30.853h40.387c17.039 0 30.853 13.814 30.853 30.853s-13.814 30.863-30.853 30.863zM518.84 207.944h-186.778c-17.039 0-30.853-13.824-30.853-30.863s13.814-30.853 30.853-30.853h186.778c17.039 0 30.863 13.814 30.863 30.853s-13.814 30.863-30.863 30.863zM168.837 684.698h350.003c17.039 0 30.863 13.814 30.863 30.853s-13.824 30.853-30.863 30.853h-350.003c-17.039 0-30.853-13.814-30.853-30.853s13.814-30.853 30.853-30.853z" />
<glyph unicode="&#xe902;" glyph-name="bill" horiz-adv-x="817" d="M42.788 960h774.093v-1024h-572.887l-11.429 8.533-232.564 173.104v842.363h42.788zM85.608 182.552l148.784 54.925 5.423-19.018 56.198-196.814h435.26v852.719h-645.664v-691.812zM254.113 34.865l-44.13 154.512-109.258-40.289 153.388-114.223zM193.251 408.99v-35.597h436.842v35.597h-436.842zM193.251 515.782v-35.597h436.842v35.597h-436.842zM193.251 632.258v-35.597h436.842v35.597h-436.842zM193.251 738.985v-35.593h436.842v35.593h-436.842z" />
<glyph unicode="&#xe903;" glyph-name="checkRight" horiz-adv-x="1236" d="M866.218 679.123v124.134h-710.538v-710.513h710.538v288.764l156.744 160.131v-527.266c0-20.817-8.257-40.694-22.968-55.379-14.685-14.735-34.587-22.992-55.404-22.992h-867.257c-43.29 0-78.372 35.107-78.372 78.372v867.257c0 43.29 35.082 78.372 78.372 78.372h867.257c43.29 0 78.372-35.082 78.372-78.372v-42.4l79.83 81.561c30.31 30.904 79.88 31.448 110.833 1.187 30.879-30.286 31.423-79.905 1.187-110.833l-621.881-635.38c-14.661-14.933-34.612-23.413-55.602-23.462-0.124 0-0.272 0-0.396 0-20.767 0-40.694 8.208-55.404 22.893l-256.723 256.773c-30.582 30.656-30.582 80.251 0 110.882 30.607 30.607 80.226 30.607 110.858 0l200.75-200.8 329.804 337.073z" />
<glyph unicode="&#xe904;" glyph-name="data" horiz-adv-x="1256" d="M1201.181-64h-1146.675c-32.74 0-59.307 25.215-59.307 56.22v899.788c0 31.012 26.566 56.22 59.307 56.22 32.748 0 59.314-25.201 59.314-56.22v-843.569h1087.361c32.748 0 59.307-25.144 59.307-56.22 0-31.005-26.559-56.22-59.307-56.22zM1062.786 104.724h-118.621c-32.748 0-59.307 25.137-59.307 56.22v393.617c0 31.076 26.566 56.284 59.307 56.284h118.621c32.748 0 59.307-25.201 59.307-56.284v-393.61c0-31.083-26.559-56.227-59.307-56.227zM726.698 104.724h-118.628c-32.748 0-59.307 25.137-59.307 56.22v618.561c0 31.076 26.566 56.284 59.307 56.284h118.621c32.748 0 59.314-25.208 59.314-56.284v-618.554c0-31.083-26.566-56.227-59.307-56.227zM390.602 104.724h-118.621c-32.74 0-59.314 25.137-59.314 56.22v112.447c0 31.069 26.574 56.277 59.314 56.277h118.621c32.748 0 59.307-25.208 59.307-56.277v-112.447c0-31.076-26.559-56.22-59.307-56.22z" />
<glyph unicode="&#xe905;" glyph-name="delete" horiz-adv-x="874" d="M0 801.747c0 29.117 24.482 52.746 54.637 52.746h273.185v52.76c0 29.131 24.468 52.746 54.637 52.746h109.274c30.155 0 54.637-23.615 54.637-52.746v-52.746h273.185c30.169 0 54.637-23.629 54.637-52.746v-52.746h-874.192v52.732zM819.555 643.495v-650.626c0-29.145-24.468-52.76-54.637-52.76h-655.644c-30.155 0-54.637 23.615-54.637 52.76v703.358h764.918v-52.732zM273.171 537.988c0 29.117-24.468 52.746-54.637 52.746s-54.637-23.629-54.637-52.746v-439.627c0-29.145 24.468-52.76 54.637-52.76s54.637 23.615 54.637 52.76v439.627zM491.733 537.988c0 29.117-24.482 52.746-54.637 52.746s-54.637-23.629-54.637-52.746v-439.627c0-29.145 24.482-52.76 54.637-52.76 30.169 0 54.637 23.615 54.637 52.76v439.627zM710.281 537.988c0 29.117-24.482 52.746-54.651 52.746-30.155 0-54.637-23.629-54.637-52.746v-439.627c0-29.145 24.482-52.76 54.637-52.76 30.169 0 54.651 23.615 54.651 52.76v439.627z" />
<glyph unicode="&#xe906;" glyph-name="download" horiz-adv-x="1060" d="M1016.863 414.113c-23.672 0-42.908-19.236-42.908-42.908v-350.684h-888.14v350.669c0 23.686-19.193 42.908-42.908 42.908-23.672 0.014-42.908-19.222-42.908-42.908v-355.489c0-44.671 36.354-80.982 80.996-80.982h897.793c44.671 0 80.982 36.325 80.982 80.982v355.489c0 23.686-19.193 42.922-42.908 42.922zM519.571 230.653c5.673-7.293 14.914-7.293 20.643 0l221.847 283.137c2.886 3.654 4.294 8.474 4.294 13.208h-122.311v401.496c0 17.388-14.089 31.506-31.491 31.506h-165.347c-17.388 0-31.491-14.118-31.491-31.506v-401.496h-122.269c0-4.734 1.408-9.554 4.251-13.208l221.875-283.137z" />
<glyph unicode="&#xe907;" glyph-name="edit" horiz-adv-x="1060" d="M1026.957 804.15l-106.217-105.919-141.604 141.235 106.217 105.919c19.563 19.492 51.239 19.492 70.802 0l70.788-70.589c19.591-19.506 19.591-51.154 0.014-70.646zM283.18 345.216l141.604-141.277-188.763-46.988 47.159 188.265zM885.353 662.958l-424.812-423.704-141.604 141.235 424.812 423.661 141.604-141.192zM118.757 807.69v-770.676h771.274v556.010l100.616 100.488v-706.784c0-27.781-22.577-50.272-50.301-50.272h-871.903c-27.823 0-50.315 22.492-50.315 50.272v871.235c0 27.738 22.506 50.23 50.315 50.23h710.21l-100.63-100.502h-559.265z" />
<glyph unicode="&#xe908;" glyph-name="general" d="M406.064 395.004h-353.069c-29.271 0-52.996-23.688-52.996-52.94v-353.069c0-29.271 23.725-52.977 52.996-52.977h353.050c29.271 0 52.94 23.706 52.94 52.977v353.069c0.019 29.252-23.65 52.94-52.921 52.94zM971.004 395.004h-353.050c-29.289 0-52.94-23.669-52.94-52.94v-353.069c0-29.271 23.65-52.977 52.94-52.977h353.050c29.289 0 52.996 23.706 52.996 52.977v353.069c0 29.252-23.706 52.94-52.996 52.94zM406.064 960h-353.069c-29.271 0-52.996-23.725-52.996-52.996v-353.106c0-29.215 23.725-52.884 52.996-52.884h353.050c29.271 0 52.94 23.669 52.94 52.884v353.106c0.019 29.271-23.65 52.996-52.921 52.996zM971.004 960h-353.050c-29.289 0-52.94-23.725-52.94-52.996v-353.106c0-29.215 23.65-52.884 52.94-52.884h353.050c29.289 0 52.996 23.669 52.996 52.884v353.106c0 29.271-23.706 52.996-52.996 52.996zM934.685 622.661c0-17.9-14.487-32.35-32.332-32.35h-215.674c-17.882 0-32.332 14.45-32.332 32.35v215.618c0 17.919 14.45 32.387 32.332 32.387h215.674c17.845 0 32.332-14.469 32.332-32.387v-215.618z" />
<glyph unicode="&#xe909;" glyph-name="install" horiz-adv-x="1021" d="M510.512 541.089c-53.053 0-96.066-43.013-96.066-96.066s43.013-96.066 96.066-96.066c53.053 0 96.066 43.013 96.066 96.066s-42.992 96.066-96.066 96.066zM922.212 955.535h-823.422c-54.562 0-98.79-52.739-98.79-117.802v-785.398c0-65.064 44.228-117.802 98.79-117.802h823.422c54.562 0 98.79 52.76 98.79 117.802v785.398c0 65.064-44.228 117.802-98.79 117.802zM798.75 438.484c0-30.038-60.368-47.352-76.425-51.418-4.863-17.607-12.011-34.272-20.877-49.762 1.321-1.635 47.98-60.285 19.326-88.981l-14.317-14.317c-21.485-21.464-75.335 12.199-88.184 20.752-16.371-9.181-34.062-16.371-52.676-21.108l3.752-0.105c0 0-10.187-76.76-51.313-76.76h-14.107c-31.379 0-48.84 65.756-51.837 78.165-18.425 5.156-35.886 12.703-52.026 22.24l2.809-2.997c0 0-60.725-47.771-89.819-18.697l-12.849 10.69c-22.156 22.114 13.499 80.659 20.626 91.81-8.636 15.176-15.532 31.421-20.311 48.588-12.116 2.935-78.332 20.416-78.332 51.879v14.086c0 36.326 63.177 48.504 77.955 50.873 4.737 17.293 11.592 33.685 20.165 48.945-6.75 10.313-43.809 69.109-21.527 91.412l13.541 11.424c25.615 25.594 78.060-10.648 90.301-19.725 15.49 8.867 32.134 15.972 49.72 20.898 3.899 15.407 21.255 76.865 51.544 76.865h14.107c35.278 0 47.75-59.446 50.621-76.446 17.817-4.821 34.712-11.906 50.475-20.836 13.268 8.678 68.019 42.153 89.463 20.71l12.849-13.562c25.049-25.070-9.705-75.838-19.787-89.4 8.867-15.553 15.91-32.259 20.773-49.888 4.507-0.629 76.32-11.424 76.32-51.271v-14.065z" />
<glyph unicode="&#xe90a;" glyph-name="logincode" d="M887.439 834.632c-8.96-0.297-17.715-0.399-26.235-0.399-225.137 0-324.403 100.864-325.243 101.796l-22.415 23.972-22.579-23.962c-0.891-1.085-98.12-101.796-325.233-101.796-8.561 0-17.234 0.092-26.235 0.399l-31.58 1.085v-457.308c0-119.695 40.888-294.349 394.537-428.012l10.988-4.147 11.039 4.147c353.556 133.663 394.496 308.316 394.496 428.012v457.308l-31.539-1.096zM478.7 260.096l-203.715 187.72 54.108 45.537 108.308-83.057c0 0 149.596 160.881 294.001 236.124l20.644-24.259c0 0.010-180.531-155.535-273.347-362.066z" />
<glyph unicode="&#xe90b;" glyph-name="loginpsd" d="M827.802 580.987h-44.954v91.832c0 152.197-120.617 275.558-269.414 275.558-148.787 0-269.445-123.361-269.445-275.558v-91.832h-44.892c-49.582 0-89.784-41.093-89.784-91.853v-459.233c0-50.739 40.202-91.873 89.784-91.873h628.705c49.582 0 89.795 41.134 89.795 91.873v459.233c-0.010 50.76-40.212 91.853-89.795 91.853zM378.716 672.819c0 76.104 60.334 137.789 134.728 137.789 74.414 0 134.676-61.686 134.676-137.789v-91.832h-269.404v91.832z" />
<glyph unicode="&#xe90c;" glyph-name="loginuser" d="M0-64h1024.205v73.073c0 0-100.598 150.753-310.917 164.424 0 0-141.752-4.547-73.155 91.351 0 0 118.845 95.908 128.020 200.96 0 0 73.165-4.557 73.165 91.351 0 0 0 59.372-36.588 73.073 0 0 64.010 319.703-292.618 328.847 0 0-342.927 36.536-292.639-347.095 0 0-45.732-13.722-36.588-73.103 0 0-18.278-82.207 73.175-91.32 0 0 41.155-141.588 146.309-200.929 0 0 27.423-45.681-54.876-73.134 0 0-288.051 0-347.484-164.424v-73.073z" />
<glyph unicode="&#xe90d;" glyph-name="logo" horiz-adv-x="4697" d="M368.294 377.709v581.727h-249.929c-62.377 0-113.386-51.010-113.386-113.386v-796.617c0-62.377 51.010-113.433 113.386-113.433h796.617c62.377 0 113.339 51.057 113.339 113.433v214.889h-546.641c-62.377 0-113.386 51.010-113.386 113.386zM1028.368 484.425h-335.368c-58.525 0-106.247 47.863-106.247 106.341v368.67h335.321c58.478 0 106.294-47.863 106.294-106.341v-368.67zM3052.351 189.69l75.444 121.731 303.987-188.401-75.444-121.731-303.987 188.401zM2977.355 960c-68.201-10.568-126.961-44.951-147.91-58.478v-372.146h-352.982v-125.411h352.982v-467.355h148.473l-0.235 467.355h515.217v125.411h-515.264l-0.094 165.101h401.267v125.411h-401.361l-0.094 140.112zM2028.789 170.57l-109.206 351.526h-142.79l109.206-351.526zM1751.617 773.152v-125.411h621.934v125.411h-237.67l-28.84 181.822c-68.107-14.185-122.78-48.004-142.696-61.625l18.835-120.197h-231.564zM1586.751 313.219h84.875v125.317h-84.828l0.094 205.166h84.734v125.411h-84.641l0.094 185.674c-67.074-13.34-116.345-42.696-134.053-54.392l-0.047-131.282h-107.703v-125.364h107.656l-0.047-205.166h-107.609v-125.317h107.562l-0.047-203.1c0-27.666-13.715-41.193-41.757-41.193h-65.758v-125.364h179.849c24.753 0 61.531 20.291 61.531 76.374l0.094 293.236zM1693.468 68.926v-125.364h698.026v125.364h-190.089l141.099 453.17h-144.95l-141.756-453.17zM4334.421 170.57l-109.159 351.526h-142.79l109.065-351.526zM4057.202 773.152v-125.411h621.934v125.411h-237.764l-28.699 181.822c-68.201-14.185-122.874-48.004-142.79-61.625l18.835-120.197h-231.517zM3892.337 313.219h84.922v125.317h-84.922l0.188 205.166h84.734v125.411h-84.687l0.141 185.674c-67.168-13.34-116.439-42.696-134.1-54.392l-0.047-131.282h-107.609v-125.364h107.609l-0.047-205.166h-107.562v-125.317h107.515v-203.1c0-27.666-13.762-41.193-41.898-41.193h-65.618v-125.364h179.849c24.612 0 61.437 20.291 61.437 76.374l0.094 293.236zM3999.006 68.926v-125.364h698.026v125.364h-189.948l141.005 453.17h-144.903l-141.803-453.17z" />
<glyph unicode="&#xe90e;" glyph-name="menuoption" horiz-adv-x="1422" d="M154.997 960h-132.846c-12.227 0-22.151-10.379-22.151-23.231v-139.699c0-12.852 9.924-23.231 22.151-23.231h132.846c12.227 0 22.151 10.379 22.151 23.231v139.699c0 12.852-9.909 23.231-22.151 23.231zM1395.455 960h-996.76c-12.227 0-22.165-10.379-22.165-23.231v-139.699c0-12.852 9.924-23.231 22.165-23.231h996.76c12.227 0 22.165 10.379 22.165 23.231v139.699c0 12.852-9.924 23.231-22.165 23.231zM154.997 541.073h-132.846c-12.227 0-22.151-10.379-22.151-23.231v-139.699c0-12.852 9.924-23.231 22.151-23.231h132.846c12.227 0 22.151 10.379 22.151 23.231v139.699c0 12.852-9.909 23.231-22.151 23.231zM1395.455 541.073h-996.76c-12.227 0-22.165-10.379-22.165-23.231v-139.699c0-12.852 9.924-23.231 22.165-23.231h996.76c12.227 0 22.165 10.379 22.165 23.231v139.699c0 12.852-9.924 23.231-22.165 23.231zM154.997 122.147h-132.846c-12.227 0-22.151-10.379-22.151-23.231v-139.614c0-12.924 9.924-23.316 22.151-23.316h132.846c12.227 0 22.151 10.379 22.151 23.316v139.614c0 12.852-9.909 23.231-22.151 23.231zM1395.455 122.147h-996.76c-12.227 0-22.165-10.379-22.165-23.231v-139.614c0-12.924 9.924-23.316 22.165-23.316h996.76c12.227 0 22.165 10.379 22.165 23.316v139.614c0 12.852-9.924 23.231-22.165 23.231z" />
<glyph unicode="&#xe90f;" glyph-name="mobile" d="M876.227 852.132c0 59.566-48.302 107.868-107.878 107.868h-485.427c-59.566 0-107.868-48.302-107.868-107.868v-809.032c0-59.576 48.302-107.878 107.868-107.878h485.427c59.566 0 107.878 48.302 107.878 107.878v809.032zM525.64 43.1c-29.819 0-53.944 24.166-53.944 53.934s24.125 53.934 53.944 53.934c29.768 0 53.944-24.166 53.944-53.934s-24.177-53.934-53.944-53.934zM822.292 258.836h-593.306v593.295c0 29.768 24.136 53.934 53.934 53.934h485.427c29.768 0 53.944-24.156 53.944-53.934v-593.295z" />
<glyph unicode="&#xe910;" glyph-name="right" d="M512.84 958.351c-282.317 0-511.171-228.874-511.171-511.171 0-282.307 228.854-511.181 511.171-511.181 282.307 0 511.16 228.874 511.16 511.171 0 282.307-228.854 511.181-511.16 511.181zM477.757 252.426l-205.455 189.256 54.538 45.916 109.261-83.732c0 0 150.825 162.243 296.509 238.049l20.777-24.392c-0.010 0-182.047-156.877-275.63-365.097z" />
<glyph unicode="&#xe911;" glyph-name="trade" d="M773.488 497.84l-51.12 190.704-679.104-182.048 59.936-223.632c5.2-19.376 24.832-30.944 43.872-25.84l8.624 2.32v238.496h617.792zM687.168 819.792c-5.184 19.376-24.848 30.928-43.872 25.84l-610.176-163.584c-19.040-5.104-30.256-24.944-25.056-44.304l10.352-38.64 679.12 182.048-10.368 38.64zM680.976 212.448h10.784v-21.568h-10.784v21.568zM551.664 244.784h-53.904v-53.888h53.904v53.888zM540.88 201.664h-32.336v32.336h32.336v-32.336zM497.76 352.56h53.904v53.888h-53.904v-53.888zM508.528 395.664h32.336v-32.336h-32.336v32.336zM637.856 234h21.568v-21.552h-21.568v21.552zM830.080 465.84h-594.384v-335.424h769.44v335.424h-175.056zM594.768 428h21.552v-21.552h-21.552v21.552zM594.768 363.344v21.552h21.552v-43.12h-21.552v21.568zM476.208 428h97.008v-97.008h-97.008v97.008zM573.2 169.344h-97.008v97.008h97.008v-97.008zM734.864 234v-21.552h-21.552v-21.568h21.552v-21.552h-21.552v21.552h-10.784v-21.552h-21.568v21.552h-21.552v-21.552h-21.568v43.12h-21.52v-21.568h-21.552v43.12h21.552v21.568h43.12v-21.568h21.552v21.568h53.904v-21.568zM734.864 277.104h-64.672v21.584h-21.552v-21.584h-86.224v21.584h-21.552v-21.584h-43.104v21.584h-21.552v21.552h21.552v-21.552h21.552v21.552h86.224v-21.552h10.8v21.552h53.904v-21.552h21.552v21.552h21.568v-21.552h21.552v-21.584zM734.864 330.992h-97.008v97.008h97.008v-97.008zM713.312 406.448h-53.888v-53.888h53.888v53.888zM702.528 363.344h-32.336v32.336h32.336v-32.336z" />
<glyph unicode="&#xe912;" glyph-name="transfer" horiz-adv-x="1367" d="M326.157 302.946c-87.751 0-170.761 10.197-233.523 28.867-32.314 9.622-58.165 21.112-76.981 34.181-2.727 1.867-5.17 3.878-7.612 5.745v-132.847c0-4.021 0.863-8.043 2.585-11.92 19.821-46.532 153.528-82.437 315.529-82.437s295.854 35.905 315.529 82.437c1.723 3.878 2.585 7.899 2.585 11.92v132.991c-2.442-2.011-5.027-3.878-7.612-5.745-18.67-13.071-44.522-24.56-76.981-34.183-62.902-18.67-145.771-29.009-233.521-29.009zM326.157 94.412c-87.751 0-170.761 10.197-233.523 28.867-32.314 9.622-58.165 21.112-76.981 34.181-2.727 1.867-5.17 3.878-7.612 5.745v-132.847c0-4.021 0.863-8.043 2.585-11.92 19.821-46.532 153.528-82.437 315.529-82.437s295.854 35.905 315.529 82.437c1.723 3.878 2.585 7.899 2.585 11.92v132.847c-2.442-2.009-5.027-3.878-7.612-5.745-18.67-13.069-44.522-24.559-76.981-34.181-62.902-18.527-145.771-28.867-233.521-28.867zM644.128 446.708c0 5.17-1.436 10.197-4.023 15.080-2.872 5.17-7.036 10.197-12.638 15.080-42.511 37.341-161.426 64.054-301.453 64.054s-258.944-26.857-301.455-64.054c-5.6-4.883-9.766-9.91-12.638-15.080-2.729-4.883-4.021-9.91-4.021-15.080v0c0-52.133 142.469-94.357 318.115-94.357 175.789 0 318.115 42.224 318.115 94.357v0zM1048.414 715.849c-87.752 0-170.762 10.197-233.525 28.867-32.314 9.622-58.165 21.112-76.979 34.181-2.729 1.868-5.172 3.878-7.612 5.745v-132.847c0-4.021 0.862-8.043 2.585-11.92 19.819-46.532 153.527-82.437 315.529-82.437s295.854 35.905 315.528 82.437c1.723 3.878 2.587 7.899 2.587 11.92v132.847c-2.442-2.009-5.027-3.878-7.613-5.745-18.67-13.069-44.522-24.559-76.979-34.181-62.758-18.67-145.77-28.867-233.521-28.867zM1048.414 507.315c-87.752 0-170.762 10.197-233.525 28.867-32.314 9.622-58.165 21.112-76.979 34.181-2.729 1.867-5.172 3.878-7.612 5.745v-132.847c0-4.021 0.862-8.043 2.585-11.92 19.677-46.532 153.386-82.437 315.531-82.437 162.001 0 295.854 35.905 315.528 82.435 1.723 3.878 2.587 7.899 2.587 11.92v132.847c-2.442-2.009-5.027-3.876-7.613-5.745-18.67-13.069-44.522-24.559-76.979-34.181-62.76-18.669-145.771-28.866-233.522-28.866zM1048.414 302.946c-87.752 0-170.762 10.197-233.525 28.867-32.314 9.622-58.165 21.112-76.979 34.181-2.729 1.867-5.172 3.878-7.612 5.745v-132.847c0-4.021 0.862-8.043 2.585-11.92 19.819-46.532 153.527-82.437 315.529-82.437s295.854 35.905 315.528 82.437c1.723 3.878 2.587 7.899 2.587 11.92v132.991c-2.442-2.011-5.027-3.878-7.613-5.745-18.67-13.071-44.522-24.56-76.979-34.183-62.758-18.67-145.77-29.009-233.521-29.009zM1048.414 98.721c-87.752 0-170.762 10.197-233.525 28.867-32.314 9.622-58.165 21.112-76.979 34.181-2.729 1.867-5.172 3.878-7.612 5.745v-132.847c0-4.021 0.862-8.043 2.585-11.92 19.819-46.532 153.527-82.437 315.529-82.437s295.854 35.905 315.528 82.437c1.723 3.878 2.587 7.899 2.587 11.92v132.847c-2.442-2.009-5.027-3.878-7.613-5.745-18.67-13.069-44.522-24.559-76.979-34.181-62.758-18.67-145.77-28.867-233.521-28.867zM1366.528 859.467c0 5.17-1.436 10.197-4.023 15.080-2.872 5.17-7.036 10.197-12.638 15.080-42.51 37.341-161.426 64.054-301.453 64.054s-258.945-26.857-301.455-64.054c-5.601-4.883-9.766-9.91-12.638-15.080-2.729-4.883-4.021-9.91-4.021-15.080v0c0-52.133 142.468-94.357 318.115-94.357 175.645 0.144 318.115 42.367 318.115 94.357v0z" />
<glyph unicode="&#xe913;" glyph-name="user" d="M508.523 960c-280.761 0-508.523-227.763-508.523-508.693 0-281.015 227.763-508.778 508.523-508.778 280.93 0 508.439 227.763 508.439 508.778 0 280.93-227.508 508.693-508.439 508.693zM807.769 91.771c-32.307 16.111-141.271 37.819-167.557 54.354-30.018 18.91-20.182 122.022-20.182 122.022l20.266 17.722c0 0 5.257 46.723 13.907 63.597 19.842 38.074 40.617 101.84 40.617 101.84s20.351 14.755 20.351 40.617c0 25.948-20.351 40.702-20.351 40.702s7.716 72.077 7.716 122.107c0 105.147-65.887 162.809-184.517 162.809-118.545 0-205.122-48.927-205.122-162.809 0-50.030 15.942-122.107 15.942-122.107s-20.266-14.755-20.266-40.702c0-25.863 20.266-40.617 20.266-40.617s23.743-73.858 40.702-101.84c9.836-16.196 13.907-63.597 13.907-63.597l20.351-17.722c0 0 9.582-103.197-20.351-122.022-26.965-16.959-142.712-39.6-170.865-55.881 1.272-1.442-171.882 143.645-171.882 361.063 0 258.459 209.447 467.991 467.821 467.991 258.289 0 467.906-209.532 467.906-467.991 0-144.578-65.632-273.807-168.66-359.536z" />
</font>
</defs>
</svg>
