<?xml version="1.0" encoding="utf-8"?>
<!-- Generator: Adobe Illustrator 16.0.0, SVG Export Plug-In . SVG Version: 6.00 Build 0)  -->
<!DOCTYPE svg PUBLIC "-//W3C//DTD SVG 1.1//EN" "http://www.w3.org/Graphics/SVG/1.1/DTD/svg11.dtd">
<svg version="1.1" id="Icons" xmlns="http://www.w3.org/2000/svg" xmlns:xlink="http://www.w3.org/1999/xlink" x="0px" y="0px"
	 width="62.063px" height="48.852px" viewBox="0 0 62.063 48.852" enable-background="new 0 0 62.063 48.852" xml:space="preserve">
<path fill="#676F72" d="M60.201,6.021H26.094l-2.125-4.349C23.52,0.753,22.313,0,21.289,0H9.521C8.496,0,7.287,0.751,6.833,1.67
	L4.681,6.021H1.863C0.838,6.021,0,6.859,0,7.885v39.104c0,1.024,0.838,1.862,1.863,1.862h57.534c0,0,2.667-0.501,2.667-2.563V16.236
	V7.885C62.063,6.859,61.226,6.021,60.201,6.021z M41.654,24.879h5.801v1.943h-5.801V24.879z M45.71,40.743l-24.272,0.005V38.25
	c0,0,0.016-1.473,3.03-2.819c1.457-0.648,3.614-2.314,6.809-2.898c-0.819-0.88-1.436-2.256-2.08-3.898
	c-0.373-0.946-0.311-1.758-0.311-2.91c0-0.845-0.159-2.202,0.048-2.951c0.709-2.53,2.506-3.231,4.611-3.231
	c2.102,0,3.9,0.696,4.608,3.225c0.212,0.748,0.049,2.109,0.049,2.958c0,1.149,0.066,1.957-0.306,2.904
	c-0.64,1.632-1.264,3.011-2.088,3.893c3.222,0.577,5.395,2.256,6.861,2.905c3.026,1.345,3.041,2.824,3.041,2.824V40.743z
	 M49.854,31.38h-8.2v-1.943h8.2V31.38z M51.479,22.222h-9.825v-1.943h9.825V22.222z"/>
</svg>
