<?xml version="1.0" encoding="utf-8"?>
<!-- Generator: Adobe Illustrator 16.0.0, SVG Export Plug-In . SVG Version: 6.00 Build 0)  -->
<!DOCTYPE svg PUBLIC "-//W3C//DTD SVG 1.1//EN" "http://www.w3.org/Graphics/SVG/1.1/DTD/svg11.dtd">
<svg version="1.1" id="Layer_1" xmlns="http://www.w3.org/2000/svg" xmlns:xlink="http://www.w3.org/1999/xlink" x="0px" y="0px"
	 width="176.538px" height="143.965px" viewBox="0 0 176.538 143.965" enable-background="new 0 0 176.538 143.965"
	 xml:space="preserve">
<path fill-rule="evenodd" clip-rule="evenodd" fill="#5A6265" d="M168.875,143.965H7.663c-4.603,0-8.338-3.545-8.338-7.904V9.559
	c0-4.36,3.735-7.904,8.338-7.904c4.604,0,8.339,3.543,8.339,7.904v100.149l0,0v18.449h152.873c4.604,0,8.338,3.535,8.338,7.904
	C177.213,140.42,173.479,143.965,168.875,143.965z M149.418,120.244h-16.677c-4.604,0-8.338-3.534-8.338-7.904V57.001
	c0-4.369,3.735-7.913,8.338-7.913h16.677c4.604,0,8.338,3.543,8.338,7.913v55.338C157.756,116.709,154.022,120.244,149.418,120.244z
	 M102.167,120.244H85.489c-4.604,0-8.338-3.534-8.338-7.904V25.376c0-4.369,3.735-7.913,8.338-7.913h16.677
	c4.604,0,8.339,3.544,8.339,7.913v86.963C110.505,116.709,106.77,120.244,102.167,120.244z M54.915,120.244H38.238
	c-4.603,0-8.339-3.534-8.339-7.904V96.531c0-4.368,3.736-7.912,8.339-7.912h16.677c4.604,0,8.338,3.544,8.338,7.912v15.809
	C63.253,116.709,59.519,120.244,54.915,120.244z"/>
</svg>
