<?xml version="1.0" encoding="utf-8"?>
<!-- Generator: Adobe Illustrator 16.0.0, SVG Export Plug-In . SVG Version: 6.00 Build 0)  -->
<!DOCTYPE svg PUBLIC "-//W3C//DTD SVG 1.1//EN" "http://www.w3.org/Graphics/SVG/1.1/DTD/svg11.dtd">
<svg version="1.1" id="图层_1" xmlns="http://www.w3.org/2000/svg" xmlns:xlink="http://www.w3.org/1999/xlink" x="0px" y="0px"
	 width="61.487px" height="72.025px" viewBox="0 0 61.487 72.025" enable-background="new 0 0 61.487 72.025" xml:space="preserve">
<path fill-rule="evenodd" clip-rule="evenodd" fill="#B0B0B0" d="M0,11.131c0-2.048,1.722-3.71,3.843-3.71h19.215V3.71
	c0-2.049,1.721-3.71,3.843-3.71h7.686c2.121,0,3.843,1.661,3.843,3.71v3.71h19.215c2.122,0,3.843,1.662,3.843,3.71v3.71H0V11.131z
	 M57.645,22.262v7.42v38.343c0,2.05-1.721,3.711-3.843,3.711H7.686c-2.121,0-3.843-1.661-3.843-3.711V29.683v-7.42v-3.71h53.802
	V22.262z M19.214,29.683c0-2.048-1.721-3.71-3.843-3.71c-2.122,0-3.843,1.662-3.843,3.71v30.922c0,2.05,1.721,3.711,3.843,3.711
	c2.122,0,3.843-1.661,3.843-3.711V29.683z M34.587,29.683c0-2.048-1.722-3.71-3.843-3.71c-2.121,0-3.843,1.662-3.843,3.71v30.922
	c0,2.05,1.722,3.711,3.843,3.711c2.122,0,3.843-1.661,3.843-3.711V29.683z M49.959,29.683c0-2.048-1.722-3.71-3.844-3.71
	c-2.121,0-3.843,1.662-3.843,3.71v30.922c0,2.05,1.722,3.711,3.843,3.711c2.122,0,3.844-1.661,3.844-3.711V29.683z"/>
</svg>
