<?xml version="1.0" encoding="utf-8"?>
<!-- Generator: Adobe Illustrator 16.0.0, SVG Export Plug-In . SVG Version: 6.00 Build 0)  -->
<!DOCTYPE svg PUBLIC "-//W3C//DTD SVG 1.1//EN" "http://www.w3.org/Graphics/SVG/1.1/DTD/svg11.dtd">
<svg version="1.1" id="图层_1" xmlns="http://www.w3.org/2000/svg" xmlns:xlink="http://www.w3.org/1999/xlink" x="0px" y="0px"
	 width="74.541px" height="72.025px" viewBox="0 0 74.541 72.025" enable-background="new 0 0 74.541 72.025" xml:space="preserve">
<g>
	<g>
		<path fill="#231815" d="M71.523,38.396c-1.665,0-3.018,1.353-3.018,3.018V66.08H6.036V41.415c0-1.666-1.35-3.018-3.018-3.018
			C1.353,38.396,0,39.749,0,41.415v25.004c0,3.142,2.557,5.696,5.697,5.696h63.148c3.142,0,5.696-2.555,5.696-5.696V41.415
			C74.541,39.749,73.191,38.396,71.523,38.396z"/>
	</g>
	<g>
		<path fill="#231815" d="M36.545,51.3c0.399,0.513,1.049,0.513,1.452,0l15.604-19.915c0.203-0.257,0.302-0.596,0.302-0.929H45.3
			V2.216C45.3,0.993,44.309,0,43.085,0h-11.63c-1.223,0-2.215,0.993-2.215,2.216v28.24H20.64c0,0.333,0.099,0.672,0.299,0.929
			L36.545,51.3z"/>
	</g>
</g>
</svg>
