<?xml version="1.0" encoding="utf-8"?>
<!-- Generator: Adobe Illustrator 16.0.0, SVG Export Plug-In . SVG Version: 6.00 Build 0)  -->
<!DOCTYPE svg PUBLIC "-//W3C//DTD SVG 1.1//EN" "http://www.w3.org/Graphics/SVG/1.1/DTD/svg11.dtd">
<svg version="1.1" id="图层_1" xmlns="http://www.w3.org/2000/svg" xmlns:xlink="http://www.w3.org/1999/xlink" x="0px" y="0px"
	 width="100px" height="100px" viewBox="0 0 100 100" enable-background="new 0 0 100 100" xml:space="preserve">
<path fill-rule="evenodd" clip-rule="evenodd" d="M86.664,12.243c-0.875,0.029-1.73,0.039-2.562,0.039
	c-21.986,0-31.68-9.85-31.762-9.941L50.151,0l-2.205,2.34c-0.087,0.106-9.582,9.941-31.761,9.941c-0.836,0-1.683-0.009-2.562-0.039
	l-3.084-0.106v44.659c0,11.689,3.993,28.745,38.529,41.798l1.073,0.405l1.078-0.405C85.746,85.54,89.744,68.484,89.744,56.795
	V12.136L86.664,12.243z M46.748,68.35L26.854,50.018l5.284-4.447l10.577,8.111c0,0,14.609-15.711,28.711-23.059l2.016,2.369
	C73.442,32.991,55.812,48.181,46.748,68.35z"/>
</svg>
