<?xml version="1.0" encoding="utf-8"?>
<!-- Generator: Adobe Illustrator 16.0.0, SVG Export Plug-In . SVG Version: 6.00 Build 0)  -->
<!DOCTYPE svg PUBLIC "-//W3C//DTD SVG 1.1//EN" "http://www.w3.org/Graphics/SVG/1.1/DTD/svg11.dtd">
<svg version="1.1" id="图层_1" xmlns="http://www.w3.org/2000/svg" xmlns:xlink="http://www.w3.org/1999/xlink" x="0px" y="0px"
	 width="100px" height="100px" viewBox="0 0 100 100" enable-background="new 0 0 100 100" xml:space="preserve">
<g>
	<g>
		<path fill-rule="evenodd" clip-rule="evenodd" d="M80.84,37.013h-4.39v-8.968c0-14.863-11.779-26.91-26.31-26.91
			c-14.53,0-26.313,12.047-26.313,26.91v8.968h-4.384c-4.842,0-8.768,4.013-8.768,8.97V90.83c0,4.955,3.926,8.972,8.768,8.972H80.84
			c4.842,0,8.769-4.017,8.769-8.972V45.983C89.608,41.026,85.682,37.013,80.84,37.013z M36.984,28.045
			c0-7.432,5.892-13.456,13.157-13.456c7.267,0,13.152,6.024,13.152,13.456v8.968H36.984V28.045z"/>
	</g>
</g>
</svg>
