<?xml version="1.0" encoding="utf-8"?>
<!-- Generator: Adobe Illustrator 16.0.0, SVG Export Plug-In . SVG Version: 6.00 Build 0)  -->
<!DOCTYPE svg PUBLIC "-//W3C//DTD SVG 1.1//EN" "http://www.w3.org/Graphics/SVG/1.1/DTD/svg11.dtd">
<svg version="1.1" id="图层_1" xmlns="http://www.w3.org/2000/svg" xmlns:xlink="http://www.w3.org/1999/xlink" x="0px" y="0px"
	 width="100px" height="100px" viewBox="0 0 100 100" enable-background="new 0 0 100 100" xml:space="preserve">
<path fill-rule="evenodd" clip-rule="evenodd" d="M85.569,10.534C85.569,4.717,80.852,0,75.034,0H27.629
	c-5.817,0-10.534,4.717-10.534,10.534v79.007c0,5.818,4.717,10.535,10.534,10.535h47.405c5.817,0,10.535-4.717,10.535-10.535V10.534
	z M51.332,89.541c-2.912,0-5.268-2.36-5.268-5.267s2.356-5.267,5.268-5.267c2.907,0,5.268,2.36,5.268,5.267
	S54.239,89.541,51.332,89.541 M80.302,68.473H22.362V10.534c0-2.907,2.357-5.267,5.267-5.267h47.405
	c2.907,0,5.268,2.359,5.268,5.267V68.473z"/>
</svg>
