<?xml version="1.0" encoding="utf-8"?>
<!-- Generator: Adobe Illustrator 16.0.0, SVG Export Plug-In . SVG Version: 6.00 Build 0)  -->
<!DOCTYPE svg PUBLIC "-//W3C//DTD SVG 1.1//EN" "http://www.w3.org/Graphics/SVG/1.1/DTD/svg11.dtd">
<svg version="1.1" id="Capa_1" xmlns="http://www.w3.org/2000/svg" xmlns:xlink="http://www.w3.org/1999/xlink" x="0px" y="0px"
	 width="64px" height="64px" viewBox="0 0 64 64" enable-background="new 0 0 64 64" xml:space="preserve">
<path fill="#5A6265" d="M48.343,28.885l-3.195-11.919L2.704,28.344L6.45,42.321c0.325,1.211,1.552,1.934,2.742,1.615l0.539-0.145
	V30.885v-2h2H48.343z"/>
<path fill="#5A6265" d="M42.948,8.763c-0.324-1.211-1.553-1.933-2.742-1.615L2.07,17.372c-1.19,0.319-1.891,1.559-1.566,2.769
	l0.647,2.415l42.445-11.378L42.948,8.763z"/>
<g>
	<rect x="42.561" y="46.722" fill="#5A6265" width="0.674" height="1.348"/>
	<path fill="#5A6265" d="M34.479,44.701H31.11v3.368h3.369V44.701z M33.805,47.396h-2.021v-2.021h2.021V47.396z"/>
	<path fill="#5A6265" d="M31.11,37.965h3.369v-3.368H31.11V37.965z M31.783,35.271h2.021v2.021h-2.021V35.271z"/>
	<rect x="39.866" y="45.375" fill="#5A6265" width="1.348" height="1.347"/>
	<path fill="#5A6265" d="M51.88,30.885H14.731v12.372v8.592h48.09V30.885H51.88z M37.173,33.25h1.347v1.347h-1.347V33.25z
		 M37.173,37.291v-1.347h1.347v1.347v1.348h-1.347V37.291z M29.763,33.25h6.063v6.063h-6.063V33.25z M35.825,49.416h-6.063v-6.063
		h6.063V49.416z M45.929,45.375v1.347h-1.347v1.348h1.347v1.347h-1.347v-1.347h-0.674v1.347h-1.348v-1.347h-1.347v1.347h-1.348
		v-1.347v-1.348H38.52v1.348h-1.347v-1.348v-1.347h1.347v-1.348h1.347h1.348v1.348h1.347v-1.348h0.674h0.674h0.674h1.347V45.375z
		 M45.929,42.681h-1.347h-1.348h-1.347v-1.349H40.54v1.349h-0.674h-0.673H38.52h-0.675h-0.672h-0.674h-1.348v-1.349h-0.673h-0.674
		v1.349h-1.348H31.11v-1.349h-1.347v-1.347h1.347v1.347h1.347v-1.347h1.348h0.674h0.673h0.674h0.674h1.346v1.347h0.675v-1.347h0.674
		h0.673h0.674h1.348v1.347h1.347v-1.347h1.348v1.347h1.347V42.681z M45.929,39.313h-6.063V33.25h6.063V39.313z"/>
	<path fill="#5A6265" d="M44.582,34.597h-3.368v3.368h3.368V34.597z M43.908,37.291h-2.021v-2.021h2.021V37.291z"/>
</g>
</svg>
