<?xml version="1.0" encoding="utf-8"?>
<!-- Generator: Adobe Illustrator 16.0.0, SVG Export Plug-In . SVG Version: 6.00 Build 0)  -->
<!DOCTYPE svg PUBLIC "-//W3C//DTD SVG 1.1//EN" "http://www.w3.org/Graphics/SVG/1.1/DTD/svg11.dtd">
<svg version="1.1" id="Capa_1" xmlns="http://www.w3.org/2000/svg" xmlns:xlink="http://www.w3.org/1999/xlink" x="0px" y="0px"
	 width="951.5px" height="713.001px" viewBox="24.5 170.5 951.5 713.001" enable-background="new 24.5 170.5 951.5 713.001"
	 xml:space="preserve">
<g>
	<path fill="#5A6265" d="M251.6,628c-61.1,0-118.899-7.1-162.6-20.1c-22.5-6.7-40.5-14.7-53.601-23.8c-1.899-1.3-3.6-2.7-5.3-4v79.8
		v10.5v2.2c0,2.8,0.601,5.6,1.8,8.3c13.801,32.4,106.9,57.4,219.7,57.4s206-25,219.7-57.4c1.2-2.7,1.8-5.5,1.8-8.3v-2.2v-10.5V580
		c-1.7,1.4-3.5,2.7-5.3,4c-13,9.101-31,17.101-53.601,23.801C370.4,620.801,312.699,628,251.6,628z"/>
	<path fill="#5A6265" d="M251.6,773.2c-61.1,0-118.899-7.1-162.6-20.1c-22.5-6.7-40.5-14.7-53.601-23.8c-1.899-1.3-3.6-2.7-5.3-4
		v79.8v10.5v2.2c0,2.8,0.601,5.6,1.8,8.3c13.801,32.4,106.9,57.4,219.7,57.4s206-25,219.7-57.4c1.2-2.7,1.8-5.5,1.8-8.3v-2.2v-10.5
		v-79.8c-1.7,1.399-3.5,2.7-5.3,4c-13,9.1-31,17.1-53.601,23.8C370.4,766,312.699,773.2,251.6,773.2z"/>
	<path fill="#5A6265" d="M473,527.9c0-3.6-1-7.1-2.801-10.5c-2-3.6-4.899-7.1-8.8-10.5c-29.6-26-112.399-44.6-209.899-44.6
		s-180.3,18.7-209.9,44.6c-3.899,3.4-6.8,6.9-8.8,10.5c-1.9,3.4-2.8,6.9-2.8,10.5l0,0c0,36.3,99.2,65.7,221.5,65.7
		C373.9,593.6,473,564.2,473,527.9L473,527.9z"/>
	<path fill="#5A6265" d="M754.5,340.5c-61.101,0-118.9-7.1-162.601-20.1c-22.5-6.7-40.5-14.7-53.6-23.8c-1.9-1.301-3.601-2.7-5.3-4
		v79.8v10.5v2.2c0,2.8,0.6,5.6,1.8,8.3c13.8,32.4,106.899,57.4,219.7,57.4c112.8,0,206-25,219.699-57.4c1.2-2.7,1.801-5.5,1.801-8.3
		v-2.2v-10.5v-79.8c-1.7,1.399-3.5,2.7-5.301,4c-13,9.1-31,17.1-53.6,23.8C873.4,333.4,815.6,340.5,754.5,340.5z"/>
	<path fill="#5A6265" d="M754.5,485.7c-61.101,0-118.9-7.1-162.601-20.1c-22.5-6.7-40.5-14.7-53.6-23.8c-1.9-1.3-3.601-2.7-5.3-4
		v79.8v10.5v2.2c0,2.8,0.6,5.6,1.8,8.3C548.5,571,641.6,596,754.5,596c112.8,0,206-25,219.699-57.399c1.2-2.7,1.801-5.5,1.801-8.3
		v-2.2v-10.5v-79.8c-1.7,1.399-3.5,2.699-5.301,4c-13,9.1-31,17.1-53.6,23.8C873.4,478.6,815.6,485.7,754.5,485.7z"/>
	<path fill="#5A6265" d="M754.5,628c-61.101,0-118.9-7.1-162.601-20.1c-22.5-6.7-40.5-14.7-53.6-23.8c-1.9-1.3-3.601-2.7-5.3-4v79.8
		v10.5v2.2c0,2.8,0.6,5.6,1.8,8.3c13.8,32.4,106.899,57.4,219.7,57.4c112.8,0,206-25,219.699-57.4c1.2-2.7,1.801-5.5,1.801-8.3v-2.2
		v-10.5V580c-1.7,1.4-3.5,2.7-5.301,4c-13,9.101-31,17.101-53.6,23.801C873.4,620.801,815.6,628,754.5,628z"/>
	<path fill="#5A6265" d="M754.5,770.2c-61.101,0-118.9-7.1-162.601-20.1c-22.5-6.7-40.5-14.7-53.6-23.8c-1.9-1.3-3.601-2.7-5.3-4
		v79.8v10.5v2.2c0,2.8,0.6,5.6,1.8,8.3c13.8,32.4,106.899,57.4,219.7,57.4c112.8,0,206-25,219.699-57.4c1.2-2.7,1.801-5.5,1.801-8.3
		v-2.2v-10.5v-79.8c-1.7,1.399-3.5,2.7-5.301,4c-13,9.1-31,17.1-53.6,23.8C873.4,763.1,815.6,770.2,754.5,770.2z"/>
	<path fill="#5A6265" d="M976,240.5c0-3.6-1-7.1-2.801-10.5c-2-3.6-4.899-7.1-8.8-10.5C934.8,193.5,852,174.9,754.5,174.9
		s-180.301,18.7-209.9,44.6c-3.9,3.4-6.8,6.9-8.8,10.5c-1.9,3.4-2.8,6.9-2.8,10.5l0,0c0,36.3,99.199,65.7,221.5,65.7
		C876.8,306.1,976,276.7,976,240.5L976,240.5z"/>
</g>
</svg>
