<?xml version="1.0" encoding="utf-8"?>
<!-- Generator: Adobe Illustrator 16.0.0, SVG Export Plug-In . SVG Version: 6.00 Build 0)  -->
<!DOCTYPE svg PUBLIC "-//W3C//DTD SVG 1.1//EN" "http://www.w3.org/Graphics/SVG/1.1/DTD/svg11.dtd">
<svg version="1.1" id="图层_1" xmlns="http://www.w3.org/2000/svg" xmlns:xlink="http://www.w3.org/1999/xlink" x="0px" y="0px"
	 width="12.076px" height="12.076px" viewBox="0 0 12.076 12.076" enable-background="new 0 0 12.076 12.076" xml:space="preserve">
<g>
	<g>
		<path d="M5.997,0C2.686,0,0,2.686,0,5.999c0,3.314,2.686,6,5.997,6c3.313,0,5.996-2.686,5.996-6C11.993,2.686,9.31,0,5.997,0z
			 M9.526,10.239c-0.381-0.19-1.666-0.446-1.976-0.641C7.196,9.375,7.312,8.159,7.312,8.159L7.551,7.95c0,0,0.062-0.551,0.164-0.75
			c0.234-0.449,0.479-1.201,0.479-1.201s0.24-0.174,0.24-0.479c0-0.306-0.24-0.48-0.24-0.48S8.285,4.19,8.285,3.6
			c0-1.24-0.777-1.92-2.176-1.92C4.711,1.68,3.69,2.257,3.69,3.6c0,0.59,0.188,1.44,0.188,1.44S3.639,5.214,3.639,5.52
			c0,0.305,0.239,0.479,0.239,0.479S4.158,6.87,4.358,7.2c0.116,0.191,0.164,0.75,0.164,0.75l0.24,0.209c0,0,0.113,1.217-0.24,1.439
			c-0.318,0.2-1.683,0.467-2.015,0.659C2.522,10.274,0.48,8.563,0.48,5.999c0-3.048,2.47-5.519,5.517-5.519
			c3.046,0,5.518,2.471,5.518,5.519C11.515,7.704,10.741,9.228,9.526,10.239z"/>
	</g>
</g>
</svg>
