<?xml version="1.0" encoding="utf-8"?>
<!-- Generator: Adobe Illustrator 16.0.0, SVG Export Plug-In . SVG Version: 6.00 Build 0)  -->
<!DOCTYPE svg PUBLIC "-//W3C//DTD SVG 1.1//EN" "http://www.w3.org/Graphics/SVG/1.1/DTD/svg11.dtd">
<svg version="1.1" id="图层_1" xmlns="http://www.w3.org/2000/svg" xmlns:xlink="http://www.w3.org/1999/xlink" x="0px" y="0px"
	 width="69.457px" height="100px" viewBox="15.271 0 69.457 100" enable-background="new 15.271 0 69.457 100" xml:space="preserve"
	>
<g>
	<path fill="#5A6265" d="M81.715,0h-63.43c-1.664,0-3.013,1.349-3.013,3.013v93.973c0,1.664,1.349,3.014,3.013,3.014h63.43
		c1.664,0,3.014-1.35,3.014-3.014V3.013C84.729,1.349,83.379,0,81.715,0z M78.701,93.974H21.298V6.026h57.403V93.974z"/>
	<path fill="#5A6265" d="M37.347,43.864h-3.944c-1.664,0-3.013,1.349-3.013,3.013s1.349,3.013,3.013,3.013h3.944
		c1.664,0,3.013-1.349,3.013-3.013S39.011,43.864,37.347,43.864z"/>
	<path fill="#5A6265" d="M47.699,49.891h3.943c1.664,0,3.014-1.349,3.014-3.013s-1.35-3.013-3.014-3.013h-3.943
		c-1.664,0-3.013,1.349-3.013,3.013S46.035,49.891,47.699,49.891z"/>
	<path fill="#5A6265" d="M65.939,43.864h-3.943c-1.664,0-3.014,1.349-3.014,3.013s1.35,3.013,3.014,3.013h3.943
		c1.664,0,3.014-1.349,3.014-3.013S67.604,43.864,65.939,43.864z"/>
	<path fill="#5A6265" d="M37.347,53.725h-3.944c-1.664,0-3.013,1.349-3.013,3.013c0,1.665,1.349,3.013,3.013,3.013h3.944
		c1.664,0,3.013-1.348,3.013-3.013C40.36,55.073,39.011,53.725,37.347,53.725z"/>
	<path fill="#5A6265" d="M47.699,59.75h3.943c1.664,0,3.014-1.348,3.014-3.013c0-1.664-1.35-3.013-3.014-3.013h-3.943
		c-1.664,0-3.013,1.349-3.013,3.013C44.686,58.402,46.035,59.75,47.699,59.75z"/>
	<path fill="#5A6265" d="M65.939,53.725h-3.943c-1.664,0-3.014,1.349-3.014,3.013c0,1.665,1.35,3.013,3.014,3.013h3.943
		c1.664,0,3.014-1.348,3.014-3.013C68.953,55.073,67.604,53.725,65.939,53.725z"/>
	<path fill="#5A6265" d="M37.347,63.584h-3.944c-1.664,0-3.013,1.349-3.013,3.013s1.349,3.013,3.013,3.013h3.944
		c1.664,0,3.013-1.349,3.013-3.013S39.011,63.584,37.347,63.584z"/>
	<path fill="#5A6265" d="M47.699,69.609h3.943c1.664,0,3.014-1.349,3.014-3.013s-1.35-3.013-3.014-3.013h-3.943
		c-1.664,0-3.013,1.349-3.013,3.013S46.035,69.609,47.699,69.609z"/>
	<path fill="#5A6265" d="M65.939,63.584h-3.943c-1.664,0-3.014,1.349-3.014,3.013s1.35,3.013,3.014,3.013h3.943
		c1.664,0,3.014-1.349,3.014-3.013S67.604,63.584,65.939,63.584z"/>
	<path fill="#5A6265" d="M37.347,73.443h-3.944c-1.664,0-3.013,1.35-3.013,3.014s1.349,3.013,3.013,3.013h3.944
		c1.664,0,3.013-1.349,3.013-3.013S39.011,73.443,37.347,73.443z"/>
	<path fill="#5A6265" d="M65.939,73.443h-18.24c-1.664,0-3.013,1.35-3.013,3.014s1.349,3.013,3.013,3.013h18.24
		c1.664,0,3.014-1.349,3.014-3.013S67.604,73.443,65.939,73.443z"/>
	<path fill="#5A6265" d="M31.759,26.885h34.18c1.664,0,3.014-1.349,3.014-3.013s-1.35-3.013-3.014-3.013h-34.18
		c-1.664,0-3.013,1.349-3.013,3.013S30.095,26.885,31.759,26.885z"/>
</g>
</svg>
