<?xml version="1.0" encoding="utf-8"?>
<!-- Generator: Adobe Illustrator 16.0.0, SVG Export Plug-In . SVG Version: 6.00 Build 0)  -->
<!DOCTYPE svg PUBLIC "-//W3C//DTD SVG 1.1//EN" "http://www.w3.org/Graphics/SVG/1.1/DTD/svg11.dtd">
<svg version="1.1" id="Layer_1" xmlns="http://www.w3.org/2000/svg" xmlns:xlink="http://www.w3.org/1999/xlink" x="0px" y="0px"
	 width="50px" height="41.419px" viewBox="0 8.581 50 41.419" enable-background="new 0 8.581 50 41.419" xml:space="preserve">
<path d="M35.037,19.942v-5.021H6.297V43.66h28.74V31.98l6.34-6.477V46.83c0,0.842-0.334,1.646-0.929,2.24
	C39.854,49.666,39.049,50,38.207,50H3.128c-1.751,0-3.17-1.42-3.17-3.17V11.751c0-1.751,1.419-3.17,3.17-3.17h35.079
	c1.751,0,3.17,1.419,3.17,3.17v1.715l3.229-3.299c1.226-1.25,3.231-1.272,4.483-0.048c1.249,1.225,1.271,3.232,0.048,4.483
	l-25.154,25.7c-0.593,0.604-1.4,0.947-2.249,0.949c-0.005,0-0.011,0-0.016,0c-0.84,0-1.646-0.332-2.241-0.926L9.093,29.939
	c-1.237-1.24-1.237-3.246,0-4.485c1.238-1.238,3.245-1.238,4.484,0l8.12,8.122L35.037,19.942z"/>
</svg>
