<?xml version="1.0" encoding="utf-8"?>
<!-- Generator: Adobe Illustrator 16.0.0, SVG Export Plug-In . SVG Version: 6.00 Build 0)  -->
<!DOCTYPE svg PUBLIC "-//W3C//DTD SVG 1.1//EN" "http://www.w3.org/Graphics/SVG/1.1/DTD/svg11.dtd">
<svg version="1.1" id="图层_1" xmlns="http://www.w3.org/2000/svg" xmlns:xlink="http://www.w3.org/1999/xlink" x="0px" y="0px"
	 width="55.204px" height="55.204px" viewBox="0 0 55.204 55.204" enable-background="new 0 0 55.204 55.204" xml:space="preserve">
<g>
	<path fill="#596164" d="M21.891,30.459H2.857C1.279,30.459,0,31.736,0,33.313v19.034c0,1.578,1.279,2.856,2.857,2.856h19.033
		c1.578,0,2.854-1.278,2.854-2.856V33.313C24.745,31.736,23.469,30.459,21.891,30.459z"/>
	<path fill="#596164" d="M52.347,30.459H33.314c-1.579,0-2.854,1.276-2.854,2.854v19.034c0,1.578,1.275,2.856,2.854,2.856h19.033
		c1.579,0,2.857-1.278,2.857-2.856V33.313C55.204,31.736,53.926,30.459,52.347,30.459z"/>
	<path fill="#596164" d="M21.891,0H2.857C1.279,0,0,1.279,0,2.857v19.036c0,1.575,1.279,2.851,2.857,2.851h19.033
		c1.578,0,2.854-1.276,2.854-2.851V2.857C24.745,1.279,23.469,0,21.891,0z"/>
	<path fill="#596164" d="M52.347,0H33.314c-1.579,0-2.854,1.279-2.854,2.857v19.036c0,1.575,1.275,2.851,2.854,2.851h19.033
		c1.579,0,2.857-1.276,2.857-2.851V2.857C55.204,1.279,53.926,0,52.347,0z M50.389,18.186c0,0.965-0.781,1.744-1.743,1.744H37.019
		c-0.964,0-1.743-0.779-1.743-1.744V6.562c0-0.966,0.779-1.746,1.743-1.746h11.627c0.962,0,1.743,0.78,1.743,1.746V18.186z"/>
</g>
</svg>
