<?xml version="1.0" encoding="utf-8"?>
<!-- Generator: Adobe Illustrator 16.0.0, SVG Export Plug-In . SVG Version: 6.00 Build 0)  -->
<!DOCTYPE svg PUBLIC "-//W3C//DTD SVG 1.1//EN" "http://www.w3.org/Graphics/SVG/1.1/DTD/svg11.dtd">
<svg version="1.1" id="Icons" xmlns="http://www.w3.org/2000/svg" xmlns:xlink="http://www.w3.org/1999/xlink" x="0px" y="0px"
	 width="48.709px" height="48.852px" viewBox="0 0 48.709 48.852" enable-background="new 0 0 48.709 48.852" xml:space="preserve">
<g>
	<g>
		<path fill="#676F72" d="M24.355,19.985c-2.531,0-4.583,2.052-4.583,4.583c0,2.531,2.052,4.583,4.583,4.583
			c2.531,0,4.583-2.052,4.583-4.583C28.938,22.037,26.887,19.985,24.355,19.985z M43.996,0.213H4.713C2.11,0.213,0,2.729,0,5.833
			v37.469c0,3.104,2.11,5.62,4.713,5.62h39.283c2.603,0,4.713-2.517,4.713-5.62V5.833C48.709,2.729,46.599,0.213,43.996,0.213z
			 M38.106,24.88c0,1.433-2.88,2.259-3.646,2.453c-0.232,0.84-0.573,1.635-0.996,2.374c0.063,0.078,2.289,2.876,0.922,4.245
			l-0.683,0.683c-1.025,1.024-3.594-0.582-4.207-0.99c-0.781,0.438-1.625,0.781-2.513,1.007l0.179,0.005
			c0,0-0.486,3.662-2.448,3.662h-0.673c-1.497,0-2.33-3.137-2.473-3.729c-0.879-0.246-1.712-0.606-2.482-1.061l0.134,0.143
			c0,0-2.897,2.279-4.285,0.892l-0.613-0.51c-1.057-1.055,0.644-3.848,0.984-4.38c-0.412-0.724-0.741-1.499-0.969-2.318
			c-0.578-0.14-3.737-0.974-3.737-2.475v-0.672c0-1.733,3.014-2.314,3.719-2.427c0.226-0.825,0.553-1.607,0.962-2.335
			c-0.322-0.492-2.09-3.297-1.027-4.361l0.646-0.545c1.222-1.221,3.724,0.508,4.308,0.941c0.739-0.423,1.533-0.762,2.372-0.997
			c0.186-0.735,1.014-3.667,2.459-3.667h0.673c1.683,0,2.278,2.836,2.415,3.647c0.85,0.23,1.656,0.568,2.408,0.994
			c0.633-0.414,3.245-2.011,4.268-0.988l0.613,0.647c1.195,1.196-0.463,3.618-0.944,4.265c0.423,0.742,0.759,1.539,0.991,2.38
			c0.215,0.03,3.641,0.545,3.641,2.446V24.88z"/>
	</g>
</g>
</svg>
