<?xml version="1.0" encoding="utf-8"?>
<!-- Generator: Adobe Illustrator 16.0.0, SVG Export Plug-In . SVG Version: 6.00 Build 0)  -->
<!DOCTYPE svg PUBLIC "-//W3C//DTD SVG 1.1//EN" "http://www.w3.org/Graphics/SVG/1.1/DTD/svg11.dtd">
<svg version="1.1" id="图层_1" xmlns="http://www.w3.org/2000/svg" xmlns:xlink="http://www.w3.org/1999/xlink" x="0px" y="0px"
	 width="100px" height="100px" viewBox="0 0 100 100" enable-background="new 0 0 100 100" xml:space="preserve">
<path fill-rule="evenodd" clip-rule="evenodd" d="M0,100h100.02v-7.136c0,0-9.824-14.722-30.363-16.057
	c0,0-13.843,0.444-7.144-8.921c0,0,11.606-9.366,12.502-19.625c0,0,7.145,0.445,7.145-8.921c0,0,0-5.798-3.573-7.136
	c0,0,6.251-31.221-28.576-32.114c0,0-33.489-3.568-28.578,33.896c0,0-4.466,1.34-3.573,7.139c0,0-1.785,8.028,7.146,8.918
	c0,0,4.019,13.827,14.288,19.622c0,0,2.678,4.461-5.359,7.142c0,0-28.13,0-33.934,16.057V100z"/>
</svg>
