<?xml version="1.0" encoding="utf-8"?>
<!-- Generator: Adobe Illustrator 16.0.0, SVG Export Plug-In . SVG Version: 6.00 Build 0)  -->
<!DOCTYPE svg PUBLIC "-//W3C//DTD SVG 1.1//EN" "http://www.w3.org/Graphics/SVG/1.1/DTD/svg11.dtd">
<svg version="1.1" id="图层_1" xmlns="http://www.w3.org/2000/svg" xmlns:xlink="http://www.w3.org/1999/xlink" x="0px" y="0px"
	 width="100px" height="72.025px" viewBox="0 0 100 72.025" enable-background="new 0 0 100 72.025" xml:space="preserve">
<g>
	<g>
		<path fill-rule="evenodd" clip-rule="evenodd" d="M10.902,0H1.558C0.698,0,0,0.73,0,1.634v9.826c0,0.904,0.698,1.634,1.558,1.634
			h9.344c0.86,0,1.558-0.73,1.558-1.634V1.634C12.46,0.73,11.763,0,10.902,0z M98.152,0H28.043c-0.86,0-1.559,0.73-1.559,1.634
			v9.826c0,0.904,0.698,1.634,1.559,1.634h70.109c0.86,0,1.559-0.73,1.559-1.634V1.634C99.711,0.73,99.013,0,98.152,0z
			 M10.902,29.466H1.558C0.698,29.466,0,30.196,0,31.1v9.826c0,0.904,0.698,1.634,1.558,1.634h9.344c0.86,0,1.558-0.73,1.558-1.634
			V31.1C12.46,30.196,11.763,29.466,10.902,29.466z M98.152,29.466H28.043c-0.86,0-1.559,0.73-1.559,1.634v9.826
			c0,0.904,0.698,1.634,1.559,1.634h70.109c0.86,0,1.559-0.73,1.559-1.634V31.1C99.711,30.196,99.013,29.466,98.152,29.466z
			 M10.902,58.932H1.558c-0.86,0-1.558,0.73-1.558,1.634v9.82c0,0.909,0.698,1.64,1.558,1.64h9.344c0.86,0,1.558-0.73,1.558-1.64
			v-9.82C12.46,59.662,11.763,58.932,10.902,58.932z M98.152,58.932H28.043c-0.86,0-1.559,0.73-1.559,1.634v9.82
			c0,0.909,0.698,1.64,1.559,1.64h70.109c0.86,0,1.559-0.73,1.559-1.64v-9.82C99.711,59.662,99.013,58.932,98.152,58.932z"/>
	</g>
</g>
</svg>
