<?xml version="1.0" encoding="utf-8"?>
<!-- Generator: Adobe Illustrator 16.0.0, SVG Export Plug-In . SVG Version: 6.00 Build 0)  -->
<!DOCTYPE svg PUBLIC "-//W3C//DTD SVG 1.1//EN" "http://www.w3.org/Graphics/SVG/1.1/DTD/svg11.dtd">
<svg version="1.1" id="图层_1" xmlns="http://www.w3.org/2000/svg" xmlns:xlink="http://www.w3.org/1999/xlink" x="0px" y="0px"
	 width="74.541px" height="72.025px" viewBox="0 0 74.541 72.025" enable-background="new 0 0 74.541 72.025" xml:space="preserve">
<path fill-rule="evenodd" clip-rule="evenodd" fill="#B0B0B0" d="M72.233,10.962l-7.471,7.45l-9.96-9.934l7.471-7.45
	c1.376-1.371,3.604-1.371,4.98,0l4.979,4.965C73.61,7.365,73.61,9.591,72.233,10.962z M19.918,43.242l9.96,9.937l-13.277,3.305
	L19.918,43.242z M62.273,20.893L32.393,50.695l-9.96-9.934l29.88-29.799L62.273,20.893z M8.353,10.713V64.92h54.249V25.812
	l7.077-7.068v49.713c0,1.954-1.588,3.536-3.538,3.536H4.814c-1.957,0-3.539-1.582-3.539-3.536V7.177
	c0-1.951,1.583-3.533,3.539-3.533h49.954l-7.078,7.069H8.353z"/>
</svg>
