<?xml version="1.0" encoding="utf-8"?>
<!-- Generator: Adobe Illustrator 16.0.0, SVG Export Plug-In . SVG Version: 6.00 Build 0)  -->
<!DOCTYPE svg PUBLIC "-//W3C//DTD SVG 1.1//EN" "http://www.w3.org/Graphics/SVG/1.1/DTD/svg11.dtd">
<svg version="1.1" id="图层_1" xmlns="http://www.w3.org/2000/svg" xmlns:xlink="http://www.w3.org/1999/xlink" x="0px" y="0px"
	 width="100px" height="21.801px" viewBox="0 0 100 21.801" enable-background="new 0 0 100 21.801" xml:space="preserve">
<g>
	<g>
		<g>
			<path fill="#00AFEC" d="M7.841,12.397V0.012H2.52c-1.328,0-2.414,1.086-2.414,2.414v16.96c0,1.328,1.086,2.415,2.414,2.415H19.48
				c1.328,0,2.413-1.087,2.413-2.415v-4.575H10.255C8.927,14.811,7.841,13.725,7.841,12.397z"/>
		</g>
		<g>
			<path fill="#00AFEC" d="M21.894,10.125h-7.14c-1.246,0-2.262-1.019-2.262-2.264V0.012h7.139c1.245,0,2.263,1.019,2.263,2.264
				V10.125z"/>
		</g>
	</g>
	<g>
		
			<rect x="67.501" y="13.305" transform="matrix(0.5268 -0.85 0.85 0.5268 18.1159 66.7667)" fill="#00AFEC" width="3.049" height="7.614"/>
		<path fill="#00AFEC" d="M63.388,0c-1.452,0.225-2.703,0.957-3.149,1.245v7.923h-7.515v2.67h7.515v9.95H63.4l-0.005-9.95h10.969
			v-2.67H63.394l-0.002-3.515h8.543v-2.67H63.39L63.388,0z"/>
		<polygon fill="#00AFEC" points="43.193,16.807 40.868,9.323 37.828,9.323 40.153,16.807 		"/>
		<path fill="#00AFEC" d="M37.292,3.978v2.67h13.241v-2.67h-5.06l-0.614-3.871c-1.45,0.302-2.614,1.022-3.038,1.312l0.401,2.559
			H37.292z"/>
		<path fill="#00AFEC" d="M33.782,13.77h1.807v-2.668h-1.806l0.002-4.368h1.804V4.064h-1.802l0.002-3.953
			c-1.428,0.284-2.477,0.909-2.854,1.158l-0.001,2.795h-2.293v2.669h2.292l-0.001,4.368h-2.291v2.668h2.29l-0.001,4.324
			c0,0.589-0.292,0.877-0.889,0.877h-1.4v2.669h3.829c0.527,0,1.31-0.432,1.31-1.626L33.782,13.77z"/>
		<polygon fill="#00AFEC" points="36.054,18.971 36.054,21.64 50.915,21.64 50.915,18.971 46.868,18.971 49.872,9.323 46.786,9.323 
			43.768,18.971 		"/>
		<polygon fill="#00AFEC" points="92.28,16.807 89.956,9.323 86.916,9.323 89.238,16.807 		"/>
		<path fill="#00AFEC" d="M86.378,3.978v2.67h13.241v-2.67h-5.062l-0.611-3.871c-1.452,0.302-2.616,1.022-3.04,1.312l0.401,2.559
			H86.378z"/>
		<path fill="#00AFEC" d="M82.868,13.77h1.808v-2.668h-1.808l0.004-4.368h1.804V4.064h-1.803l0.003-3.953
			c-1.43,0.284-2.479,0.909-2.855,1.158L80.02,4.064h-2.291v2.669h2.291l-0.001,4.368h-2.29v2.668h2.289v4.324
			c0,0.589-0.293,0.877-0.892,0.877h-1.397v2.669h3.829c0.524,0,1.308-0.432,1.308-1.626L82.868,13.77z"/>
		<polygon fill="#00AFEC" points="85.139,18.971 85.139,21.64 100,21.64 100,18.971 95.956,18.971 98.958,9.323 95.873,9.323 
			92.854,18.971 		"/>
	</g>
</g>
</svg>
