<?xml version="1.0" encoding="utf-8"?>
<!-- Generator: Adobe Illustrator 16.0.0, SVG Export Plug-In . SVG Version: 6.00 Build 0)  -->
<!DOCTYPE svg PUBLIC "-//W3C//DTD SVG 1.1//EN" "http://www.w3.org/Graphics/SVG/1.1/DTD/svg11.dtd">
<svg version="1.1" id="图层_1" xmlns="http://www.w3.org/2000/svg" xmlns:xlink="http://www.w3.org/1999/xlink" x="0px" y="0px"
	 width="4631.59px" height="690.96px" viewBox="0 0 4631.59 690.96" enable-background="new 0 0 4631.59 690.96"
	 xml:space="preserve">
<g>
	<path fill="#1FA4DB" d="M578.961,196.512c75.117,20.641,130.238,89.441,130.238,171.121c0,98-79.438,176.879-177.438,177.438
		c-89.121,0.562-154.961,34.722-230.883,128.64c-18.32,22.723-47.918,32.961,2.48-47.199
		c75.039-119.28,155.121-136.801,228.403-143.121c59.117-5.116,107.519-56.48,107.519-115.84
		c0-59.359-48.16-107.519-107.519-107.519c-13.043,0-26,2.402-38.242,7.039c8-23.758,9.679-49.278,4.96-73.918
		C485.281,124.59,425.281,74.992,355.441,74.992c-80.48,0.079-145.679,65.282-145.679,145.758c0,16,2.636,31.84,7.758,46.961
		c-23.36-9.437-49.282-10.32-73.282-2.558C99.84,279.551,69.68,320.91,69.68,367.551c0,59.441,49.761,117.521,107.679,130.961
		c40.879,9.521,86.161,17.199,123.039,13.922c30.481-2.723,32.961,7.681,2.161,13.117c-44.637,7.84-56.719,10-125.118,7.762
		C79.441,530.114,0,465.551,0,367.473c0-85.68,60.719-157.199,141.52-173.84C154.719,84.832,247.52,0.512,360.078,0.512
		C473.52,0.512,566.879,86.274,578.961,196.512"/>
	<path fill="#1FA4DB" d="M323.912,365.494V227.443h-59.311c-14.801,0-26.909,12.109-26.909,26.91v189.048
		c0,14.801,12.108,26.909,26.909,26.909h189.055c14.801,0,26.896-12.108,26.896-26.909v-50.998h-129.73
		C336.021,392.403,323.912,380.295,323.912,365.494"/>
	<path fill="#1FA4DB" d="M480.552,340.167h-79.578c-13.881,0-25.218-11.35-25.218-25.232v-87.492h79.578
		c13.881,0,25.218,11.357,25.218,25.232V340.167z"/>
	<polygon fill="#1FA4DB" points="1598.792,329.324 1566.574,381.327 1696.466,461.75 1728.66,409.759 	"/>
	<path fill="#1FA4DB" d="M1534.527,52.213c-29.149,4.505-54.233,19.201-63.194,24.972v158.982h-150.762v53.562h150.762v199.636
		h63.437l-0.097-199.636h220.068v-53.562h-220.093l-0.049-70.524h171.389v-53.562h-171.412L1534.527,52.213z"/>
	<polygon fill="#1FA4DB" points="1129.335,389.426 1082.678,239.259 1021.701,239.259 1068.333,389.426 	"/>
	<path fill="#1FA4DB" d="M1010.937,132.025v53.562h265.656v-53.562h-101.5l-12.322-77.67c-29.1,6.052-52.454,20.505-60.977,26.325
		l8.06,51.345H1010.937z"/>
	<path fill="#1FA4DB" d="M940.512,328.496h36.26v-53.549h-36.236l0.048-87.63h36.188v-53.562h-36.163l0.049-79.314
		c-28.662,5.685-49.702,18.24-57.251,23.231l-0.025,56.083h-46.025v53.562h46.001l-0.025,87.63h-45.976v53.549h45.952l-0.024,86.742
		c0,11.848-5.844,17.619-17.826,17.619h-28.102v53.55h76.83c10.569,0,26.277-8.682,26.277-32.646L940.512,328.496z"/>
	<polygon fill="#1FA4DB" points="986.098,432.857 986.098,486.406 1284.263,486.406 1284.263,432.857 1203.074,432.857 
		1263.345,239.259 1201.441,239.259 1140.879,432.857 	"/>
	<polygon fill="#1FA4DB" points="2114.198,389.426 2067.564,239.259 2006.563,239.259 2053.173,389.426 	"/>
	<path fill="#1FA4DB" d="M1995.775,132.025v53.562h265.679v-53.562h-101.547l-12.273-77.67
		c-29.126,6.052-52.479,20.505-61.002,26.325l8.06,51.345H1995.775z"/>
	<path fill="#1FA4DB" d="M1925.374,328.496h36.26v-53.549h-36.26l0.074-87.63h36.186v-53.562h-36.163l0.025-79.314
		c-28.663,5.685-49.703,18.24-57.251,23.231l-0.025,56.083h-46v53.562h46l-0.024,87.63h-45.976v53.549h45.951l-0.023,86.742
		c0,11.848-5.845,17.619-17.851,17.619h-28.077v53.55h76.83c10.544,0,26.252-8.682,26.252-32.646L1925.374,328.496z"/>
	<polygon fill="#1FA4DB" points="1970.937,432.857 1970.937,486.406 2269.102,486.406 2269.102,432.857 2187.937,432.857 
		2248.207,239.259 2186.304,239.259 2125.717,432.857 	"/>
	<polygon fill="#1FA4DB" points="3938.588,149.162 3877.586,149.162 3914.194,229.324 3975.221,229.324 	"/>
	<polygon fill="#1FA4DB" points="4119.256,229.324 4155.865,149.162 4094.863,149.162 4058.231,229.324 	"/>
	<polygon fill="#1FA4DB" points="4238.387,248.458 4044.716,248.458 4044.651,124.908 4178.627,124.908 4178.627,71.346 
		3854.393,71.346 3854.393,124.908 3988.178,124.908 3988.178,248.458 3804.217,248.458 3804.217,302.021 3988.178,302.021 
		3988.178,486.607 4044.842,486.607 4044.744,302.021 4238.387,302.021 	"/>
	<path fill="#1FA4DB" d="M3259.289,211.456h-84.867l-0.045-86.548h25.152V71.346h-324.235v53.562h25.101l-0.029,86.548h-75.246
		v53.562h75.229l-0.049,150.426c0,11.847-5.845,17.619-17.851,17.619h-28.077v53.549h76.83c10.544,0,26.252-8.683,26.252-32.645
		l0.102-188.95h160.349v221.589h56.662l-0.116-221.589h84.839V211.456z M2957.585,211.456l0.047-86.548h160.272v86.548H2957.585z"/>
	<rect x="2409.929" y="91.347" fill="#1FA4DB" width="265.679" height="53.562"/>
	<polygon fill="#1FA4DB" points="2508.993,265.018 2754.257,265.018 2754.257,211.456 2320.087,211.456 2320.087,265.018 
		2447.048,265.018 2394.422,433.179 2394.422,486.729 2630.372,486.729 2687.807,486.729 2691.398,486.729 2644.764,336.562 
		2583.763,336.562 2613.751,433.179 2456.641,433.179 	"/>
	<path fill="#1FA4DB" d="M3448.006,53.481c-29.125,6.052-52.479,20.505-61.002,26.325l8.061,51.345h-68.915v53.562h39.737
		l-0.094,232.431c0,11.848-5.846,17.618-17.851,17.618h-28.077v53.55h76.83c10.544,0,26.251-8.682,26.251-32.644l0.188-270.955
		h108.689v-53.562h-71.545L3448.006,53.481z"/>
	<path fill="#1FA4DB" d="M3435.985,288.485h39.208l-0.021,133.741c0,10.108-4.986,15.033-15.229,15.033h-23.957v45.689h65.554
		c8.997,0,22.399-7.407,22.399-27.853L3524,242.795h-88.015V288.485z"/>
	<path fill="#1FA4DB" d="M3736.891,198.791h23.01v-53.549h-144.683l36.784-94.592h-61.904l-35.585,94.592v47.422v6.127v76.084
		l64.767,97.742l-64.767,113.992h62.08l36.108-63.553l42.111,63.553h62.08l-75.534-113.992l55.532-97.742V198.791z
		 M3616.593,274.875v-76.084h58.219v76.084l-26.875,47.303L3616.593,274.875z"/>
	<polygon fill="#1FA4DB" points="4570.566,289.71 4631.592,289.71 4584.959,169.545 4523.957,169.545 4549.796,236.161 
		4349.915,236.161 4460.189,63.564 4398.286,63.564 4287.696,236.161 4287.696,289.71 	"/>
	<path fill="#1FA4DB" d="M4288.105,315.43v170.15h320.57c8.996,0,22.398-7.407,22.398-27.853l0.061-142.297h-297.34H4288.105z
		 M4582.309,424.857c0,10.107-4.987,15.033-15.231,15.033h-233.282V361.12h248.533L4582.309,424.857z"/>
</g>
</svg>
